<svg xmlns="http://www.w3.org/2000/svg" viewBox="0 0 47.34 45.78"><defs><style>.cls-1{fill:none;stroke:#fff;stroke-linecap:round;stroke-linejoin:round;stroke-width:1.78px;}</style></defs><g id="Layer_2" data-name="Layer 2"><g id="Layer_1-2" data-name="Layer 1"><path class="cls-1" d="M46.45,12.46l-.13.14.13.12-2.23,2.49L33.06,5.52,21.9,15.21l-2.23-2.49.14-.12-.14-.14L32.93.89l.13.12.13-.12ZM.89,44.89H46.45m-22.71-.75V13.85m18.64,0V44.14m-37.87.75V29.7M9.71,33h8.73v7.83H9.71Zm4.37,0v7.83m14.36,3.37V36.42a4.52,4.52,0,0,1,4.62-4.37h0a4.52,4.52,0,0,1,4.62,4.37v7.73m-29-22.74v-11M30.14,2.79H13L5,9.52H22.75M8.67,13.75h7.56v4.3H8.67m14.79,4H8.86l-8,6.73H23.47m3.37-3.17H39.29V22H26.84Zm1.85-4V13.75h8.74v7.83m-4.37-7.83v7.83m0,14.74v7.83m-4-7.83H37"/></g></g></svg>