<svg xmlns="http://www.w3.org/2000/svg" viewBox="0 0 16.22 19.73"><defs><style>.cls-1{fill:#fff;stroke:#fff;stroke-linecap:round;stroke-linejoin:round;stroke-width:0.39px;}</style></defs><g id="Layer_2" data-name="Layer 2"><g id="Layer_1-2" data-name="Layer 1"><path class="cls-1" d="M9.81,15.35A16.32,16.32,0,0,1,6,11.28,16.3,16.3,0,0,1,3.51,6.35,7.76,7.76,0,0,0,6.16,4.57L5,.25A4.78,4.78,0,0,0,1.6,1C.2,2,0,3.57.37,5.88A18.89,18.89,0,0,0,3.63,13a18.58,18.58,0,0,0,5.55,5.48c2,1.17,3.54,1.48,5,.53A4.71,4.71,0,0,0,16,16.07l-3.65-2.61A7.64,7.64,0,0,0,9.81,15.35Z"/></g></g></svg>